PathFileType	4	(X/Y/Z)	C:/Users/beibeiliu/ov580/test_trc/User2\sequence.31_training_dense_left.trc
DataRate	CameraRate	NumFrames	NumMarkers	Units	OrigDataRate	OrigDataStartFrame	OrigNumFrames
120	120	9	19	mm	120	131	349
Frame#	Time	ThumbCMC			ThumbMCP			ThumbIP			ThumbTip			IndexMCP			IndexPIP			IndexTip			MiddleMCP			MiddlePIP			MiddleTip			RingMCP			RingPIP			RingTip			PinkyMCP			PinkyPIP			PinkyTip			BackHand1			BackHand2			BackHand3	
		X0	Y0	Z0	X1	Y1	Z1	X2	Y2	Z2	X3	Y3	Z3	X4	Y4	Z4	X5	Y5	Z5	X6	Y6	Z6	X7	Y7	Z7	X8	Y8	Z8	X9	Y9	Z9	X10	Y10	Z10	X11	Y11	Z11	X12	Y12	Z12	X13	Y13	Z13	X14	Y14	Z14	X15	Y15	Z15	X16	Y16	Z16	X17	Y17	Z17	X18	Y18	Z18	
130	1.08333	-153.824	-18.4596	43.6712	-135.304	-39.8754	26.594	-120.294	-61.0844	5.27114	-107.143	-75.8531	-6.27469	-178.065	-6.49663	-29.0565	-178.725	-5.83534	-59.294	-179.338	-5.38028	-86.8653	-209.796	-3.70817	-34.4945	-216.479	-6.17819	-65.2577	-223.68	-11.7891	-94.7438	-234.343	-9.96122	-20.2093	-235.63	-25.231	-53.7635	-231.447	-59.6203	-62.0865	-247.971	-24.7961	-4.68072	-251.14	-42.3205	-30.3595	-241.178	-72.8539	-33.8587	-226.096	0.484028	27.0926	-218.818	7.99338	60.2979	-186.458	8.91036	38.5368	
131	1.09167	-154.878	-21.4243	47.5641	-136.873	-43.8796	31.3733	-119.538	-64.8779	12.7489	-108.482	-82.7905	-0.208676	-178.72	-14.386	-31.5285	-176.931	-16.1051	-55.7123	-180.444	-18.1064	-83.308	-210.077	-10.4561	-35.6582	-215.518	-16.4419	-65.8171	-225.452	-24.7663	-96.309	-234.024	-18.8376	-22.7658	-240.774	-35.4042	-50.9752	-238.25	-67.2727	-59.4884	-245.823	-29.7953	-2.47748	-254.109	-50.3994	-26.7565	-246.358	-82.4164	-32.9764	-225.79	-2.64834	30.784	-215.945	9.77501	59.0885	-186.848	5.70341	38.7733	
132	1.1	-153.495	-23.0654	47.1514	-132.823	-46.8934	33.6929	-118.36	-68.3562	13.7342	-107.519	-85.2936	5.92687	-180.006	-20.152	-29.6223	-179.05	-23.047	-57.1423	-177.541	-26.0169	-82.3814	-209.501	-17.6211	-36.1256	-217.141	-25.4893	-65.2131	-225.084	-34.8578	-96.1655	-230.315	-24.7148	-24.7536	-240.449	-44.4314	-49.0827	-236.419	-74.1176	-59.6076	-245.957	-33.5353	-1.5937	-253.287	-56.1886	-25.5625	-248.344	-85.993	-30.4775	-222.157	-6.04315	28.104	-214.134	9.37465	62.2507	-184.259	3.32526	32.9091	
133	1.10833	-149.365	-24.8079	47.3384	-132.35	-46.4788	38.132	-119.213	-70.543	18.0253	-104.391	-89.5284	5.44023	-177.064	-22.9729	-27.7246	-177.982	-28.5056	-55.7916	-176.758	-32.3056	-84.216	-209.1	-21.7718	-33.806	-211.998	-31.3474	-63.8894	-224.5	-40.2955	-91.2963	-235.07	-27.7738	-19.3937	-238.455	-47.2993	-45.4586	-238.267	-80.7699	-58.3761	-249.821	-35.9539	0.562659	-257.112	-57.5088	-21.8618	-249.794	-84.3712	-29.6402	-220.739	-3.0852	31.8788	-214.359	9.33057	60.8209	-184.992	2.94783	36.6869	
134	1.11667	-151.051	-25.0858	51.6197	-134.989	-49.2269	35.5622	-119.374	-72.1163	18.2874	-106.089	-90.4151	9.62405	-177.399	-25.0059	-27.39	-171.691	-32.1062	-58.0178	-177.541	-37.3986	-81.464	-205.908	-24.4311	-33.8346	-213.69	-34.0221	-60.4687	-220.056	-47.3051	-92.3846	-234.136	-30.5627	-20.2349	-238.606	-51.343	-45.0831	-242.246	-84.3776	-56.6909	-250.465	-37.1822	-2.41108	-252.958	-60.7292	-22.9978	-248.927	-87.4972	-30.2229	-221.507	-6.98002	28.069	-212.54	9.37442	55.6783	-182.321	2.20624	33.9257	
135	1.125	-150.095	-24.0199	54.0364	-132.791	-48.1822	41.0938	-117.432	-73.6293	20.6076	-101.929	-90.9928	13.5054	-176.277	-28.8011	-30.8611	-176.011	-35.6274	-57.6381	-177.653	-41.5711	-83.243	-206.131	-27.3945	-32.8114	-211.182	-38.782	-59.9893	-225.395	-52.4442	-91.7454	-229.565	-35.205	-22.9781	-241.36	-56.7926	-44.255	-240.031	-86.9277	-54.9924	-246.305	-38.5687	2.60561	-255.016	-63.4272	-20.8379	-252.888	-89.3813	-28.6955	-218.623	-5.80422	29.2709	-217.039	7.45379	56.6395	-181.879	0.638738	35.3639	
136	1.13333	-153.202	-27.3776	50.562	-132.726	-51.0639	39.0754	-115.727	-73.4272	25.885	-101.745	-92.5473	14.9976	-174.633	-31.168	-30.1408	-175.146	-37.5071	-55.2592	-176.413	-43.8748	-79.9217	-205.263	-29.6073	-33.1911	-210.781	-42.6694	-61.6629	-219.252	-57.1815	-90.6132	-231.338	-36.5132	-19.3503	-238.399	-55.9407	-40.2071	-241.752	-90.4267	-52.4754	-248.236	-41.5877	-1.59855	-256.917	-64.7076	-17.5809	-251.653	-95.1291	-26.9573	-216.694	-6.6512	31.5709	-215.581	8.18874	57.754	-183.52	-0.410341	35.654	
137	1.14167	-152.922	-26.9749	51.3113	-132.844	-50.7252	43.2195	-118.959	-76.8743	24.235	-105.017	-95.9432	15.6532	-174.069	-31.1895	-25.3246	-169.3	-40.5539	-54.4888	-169.991	-47.6443	-80.2404	-204.119	-31.1763	-28.9403	-210.277	-45.2715	-61.4619	-222.225	-58.9807	-87.3015	-232.208	-37.0071	-17.6092	-240.494	-59.2483	-38.6748	-238.249	-93.7596	-50.0582	-246.562	-42.5169	0.27013	-254.773	-68.2872	-16.7089	-251.26	-92.5876	-23.6586	-217.409	-5.94378	30.6435	-213.784	7.09223	59.5633	-180.038	-0.297672	35.1166	
138	1.15	-152.014	-27.6641	55.4957	-135.238	-52.9455	44.6363	-116.417	-80.6191	25.0159	-104.863	-98.7707	19.3802	-173.401	-33.2284	-27.0204	-172.7	-42.3344	-55.032	-170.395	-51.4016	-81.5422	-206.864	-32.9339	-32.2044	-211.391	-48.81	-60.5284	-220.412	-62.8728	-85.3297	-229.617	-38.5317	-17.1771	-236.513	-63.3	-37.9303	-240.472	-95.2266	-42.8077	-244.161	-44.3873	-0.518273	-254.209	-71.0065	-15.2281	-249.114	-95.6007	-18.8059	-220.097	-6.61397	27.2228	-211.652	7.88486	61.207	-179.25	-2.21294	34.3	
